# xmcd
#
# Track frame offsets:
#	150
#	30691
#	58492
#	87088
#	118150
#	145643
#	174616
#	198035
#	230752
#	256790
#
# Disc length: 3813
#
# Revision: 3
# Processed by: cddbd v1.5.1PL0 Copyright (c) Steve Scherf et al.
# Submitted via: ExactAudioCopy v0.95a4
# Normalized: r2:DSETVAR1
#
DISCID=870ee30a
DTITLE=Various Artist - Funkymix 74
DYEAR=2003
DGENRE=Hip-Hop
TTITLE0=G Unit - Stunt 101 (96 BPM)
TTITLE1=R. Kelly - Step In The Name Of Love (95 BPM)
TTITLE2=Tupac - Runnin (83 BPM)
TTITLE3=Mya - Fallen (95 BPM)
TTITLE4=Murphy Lee - Wat Da Hook Gon Be? (95 BPM)
TTITLE5=TLC - Come Get Some (101 BPM)
TTITLE6=Cee Lo - I'll Be Around (93 BPM)
TTITLE7=Bravehearts - Quick To Back Down(80 BPM)
TTITLE8=Big Tymers - This Is How We Do (101 BPM)
TTITLE9=Nelly - IZ U (143 BPM)
EXTD=
EXTT0=
EXTT1=
EXTT2=
EXTT3=
EXTT4=
EXTT5=
EXTT6=
EXTT7=
EXTT8=
EXTT9=
PLAYORDER=
